<?xml version="1.0" encoding="UTF-8"?><svg id="Layer_1" xmlns="http://www.w3.org/2000/svg" viewBox="0 0 190.77 190.43"><defs><style>.cls-1{fill:#7ed0ec;}.cls-1,.cls-2,.cls-3,.cls-4,.cls-5{stroke-width:0px;}.cls-2{fill:#5c85da;}.cls-3{fill:#000;}.cls-4{fill:#adc0ed;}.cls-5{fill:#99b2e9;}</style></defs><g id="SVGRepo_bgCarrier"><path class="cls-1" d="M96.28,190.32c22.6-2.21,28.35-32.83,42.42-50.65,10.05-12.73,20.71-23.56,27.71-38.19,10.25-21.41,31.59-43.83,21.9-65.5-9.59-21.46-40.22-20.88-63.03-26.55C105.42,4.49,85.5-.21,65.87,5.56,45.14,11.66,26.18,23.72,14.62,41.97,2.7,60.79-3.88,84.29,2.46,105.65c6,20.24,28.12,28.93,43.8,43.07,16.6,14.98,27.77,43.77,50.02,41.59"/></g><g id="SVGRepo_iconCarrier"><g id="Layer_3"><path class="cls-4" d="M153.53,2.61H39.02c-7.31,0-13.24,5.86-13.24,13.09v83.28c0,7.23,5.93,13.09,13.24,13.09h6.6c-3.1,3.87-9.71,13.25-11.03,26.86-1.89,19.49,8.48,33.44,11.03,36.7,2.43-8.19,7.5-21.22,18.44-34.04,16.67-19.53,36.99-26.88,45.87-29.52h43.6c7.31,0,13.24-5.86,13.24-13.09V15.7c0-7.23-5.93-13.09-13.24-13.09Z"/><path class="cls-5" d="M57.1,141.57c-8.21,9.62-13.11,19.36-16.07,27.08,1.91,3.45,3.72,5.84,4.6,6.96,2.43-8.19,7.5-21.22,18.44-34.04,16.66-19.53,36.99-26.88,45.87-29.52h-6.96c-8.87,2.63-29.2,9.99-45.87,29.52Z"/><path class="cls-5" d="M153.53,2.61h-6.96c7.31,0,13.24,5.86,13.24,13.09v83.28c0,7.23-5.93,13.09-13.24,13.09h6.96c7.31,0,13.24-5.86,13.24-13.09V15.7c0-7.23-5.93-13.09-13.24-13.09Z"/><path class="cls-2" d="M75.91,40.44c-.71,0-1.41-.29-1.93-.85-1.24-1.36-4.72-4.58-10.13-4.97-6.95-.5-11.54,4.06-12.38,4.98-.98,1.06-2.63,1.13-3.69.15-1.06-.98-1.13-2.63-.15-3.69,1.13-1.23,7.26-7.32,16.6-6.65,7.29.53,11.95,4.83,13.61,6.66.97,1.07.9,2.72-.17,3.69-.5.46-1.13.68-1.76.68Z"/><path class="cls-2" d="M143.01,40.44c-.71,0-1.41-.29-1.93-.85-1.24-1.36-4.72-4.58-10.13-4.97-6.95-.5-11.54,4.06-12.39,4.98-.98,1.06-2.63,1.13-3.69.15-1.06-.98-1.13-2.63-.15-3.69,1.13-1.23,7.27-7.32,16.6-6.65,7.29.53,11.95,4.83,13.61,6.66.97,1.07.9,2.72-.17,3.69-.5.46-1.13.68-1.76.68Z"/><path class="cls-2" d="M96.22,94.18c-.51,0-1.03-.01-1.54-.03-15.21-.68-28.48-11.55-32.28-26.43-.36-1.4.49-2.82,1.88-3.17,1.4-.36,2.82.49,3.17,1.88,3.23,12.67,14.52,21.92,27.45,22.5,13.98.62,26.66-8.84,30.18-22.51.36-1.4,1.78-2.24,3.18-1.88,1.4.36,2.24,1.78,1.88,3.18-4,15.54-18.12,26.46-33.93,26.46Z"/></g><g id="Layer_50"><path class="cls-3" d="M45.62,178.22c-.79,0-1.55-.36-2.05-1-4.1-5.22-13.43-19.42-11.58-38.56.98-10.14,4.73-18.21,8.52-23.99h-1.49c-8.74,0-15.85-7.04-15.85-15.7V15.7c0-8.66,7.11-15.7,15.85-15.7h114.5c8.74,0,15.85,7.04,15.85,15.7v83.27c0,8.66-7.11,15.7-15.85,15.7h-43.22c-12.28,3.69-29.79,11.64-44.26,28.6-8.24,9.65-14.27,20.78-17.92,33.09-.28.94-1.05,1.64-2.01,1.82-.16.03-.33.05-.49.05ZM39.02,5.22c-5.86,0-10.63,4.7-10.63,10.48v83.27c0,5.78,4.77,10.48,10.63,10.48h6.6c1,0,1.92.58,2.35,1.48.43.9.31,1.98-.31,2.76-4.16,5.2-9.34,13.83-10.47,25.48-1.31,13.53,3.6,24.35,7.57,30.67,3.93-11.02,9.74-21.08,17.31-29.96,15.44-18.1,34.14-26.48,47.11-30.32.24-.07.49-.11.74-.11h43.6c5.86,0,10.63-4.7,10.63-10.48V15.7c0-5.78-4.77-10.48-10.63-10.48H39.02Z"/><path class="cls-3" d="M75.91,40.44c-.71,0-1.41-.29-1.93-.85-1.24-1.36-4.72-4.58-10.13-4.97-6.95-.5-11.54,4.06-12.38,4.98-.98,1.06-2.63,1.13-3.69.15-1.06-.98-1.13-2.63-.15-3.69,1.13-1.23,7.26-7.32,16.6-6.65,7.29.53,11.95,4.83,13.61,6.66.97,1.07.9,2.72-.17,3.69-.5.46-1.13.68-1.76.68Z"/><path class="cls-3" d="M143.01,40.44c-.71,0-1.41-.29-1.93-.85-1.24-1.36-4.72-4.58-10.13-4.97-6.95-.5-11.54,4.06-12.39,4.98-.98,1.06-2.63,1.13-3.69.15-1.06-.98-1.13-2.63-.15-3.69,1.13-1.23,7.27-7.32,16.6-6.65,7.29.53,11.95,4.83,13.61,6.66.97,1.07.9,2.72-.17,3.69-.5.46-1.13.68-1.76.68Z"/><path class="cls-3" d="M96.22,94.18c-.51,0-1.03-.01-1.54-.03-15.21-.68-28.48-11.55-32.28-26.43-.36-1.4.49-2.82,1.88-3.17,1.4-.36,2.82.49,3.17,1.88,3.23,12.67,14.52,21.92,27.45,22.5,13.98.62,26.66-8.84,30.18-22.51.36-1.4,1.78-2.24,3.18-1.88,1.4.36,2.24,1.78,1.88,3.18-4,15.54-18.12,26.46-33.93,26.46Z"/></g></g></svg>